# xmcd
# 
# Track frame offsets:
#     150
#     20595
#     41598
#     59183
#     87908
#     108595
#     132733
#     148620
#     172055
#     199063
# 
# Disc length: 3083
# 
# Revision: 6
# Processed by: cddbd v1.5.2PL0 Copyright (c) Steve Scherf et al.
# Submitted via: fre:ac v1.0.17
# 
DISCID=9c0c090a
DTITLE=Robben Ford and The Blue Line - Mystic Mile
DYEAR=1993
DGENRE=Blues
TTITLE0=He Don't Play Nothin' But The Blues
TTITLE1=Busted Up
TTITLE2=Politician
TTITLE3=Worried Life Blues
TTITLE4=Misdirected Blues
TTITLE5=Moth To A Flame
TTITLE6=Trying To Do The Right Thing
TTITLE7=Say What's On Your Mind
TTITLE8=The Plunge
TTITLE9=Mystic Mile
EXTD=more info\nMillenniumMusicProjectFormat, syntax as follows:\nTitle{Subtitle}[info](Lyricist;Composer;Date,Artist,Location)[info]\ncorrections to: windking3@yahoo.com
EXTT0=
EXTT1=
EXTT2=
EXTT3=
EXTT4=
EXTT5=
EXTT6=
EXTT7=
EXTT8=
EXTT9=
PLAYORDER=
